<?xml version="1.0" standalone="no"?>
<!DOCTYPE svg PUBLIC "-//W3C//DTD SVG 20010904//EN"
 "http://www.w3.org/TR/2001/REC-SVG-20010904/DTD/svg10.dtd">
<svg version="1.0" xmlns="http://www.w3.org/2000/svg"
 width="200.000000pt" height="200.000000pt" viewBox="0 0 200.000000 200.000000"
 preserveAspectRatio="xMidYMid meet">
<metadata>
Created by potrace 1.11, written by Peter Selinger 2001-2013
</metadata>
<g transform="translate(0.000000,200.000000) scale(0.100000,-0.100000)"
fill="#000000" stroke="none">
<path d="M143 1859 c-63 -8 -96 -31 -123 -85 -20 -41 -21 -54 -18 -645 l3
-604 23 -37 c13 -21 40 -45 66 -57 40 -20 59 -21 339 -21 290 0 297 0 297 -20
0 -19 -19 -72 -54 -152 -15 -36 -15 -38 7 -63 l22 -26 295 0 c288 1 295 1 313
22 21 26 21 45 3 81 -27 52 -54 135 -47 146 4 7 98 12 306 14 334 3 334 4 389
71 l31 39 0 605 c0 678 3 653 -71 709 l-37 29 -846 0 c-465 0 -869 -3 -898 -6z
m1713 -132 c13 -13 11 -897 -2 -908 -6 -5 -354 -9 -859 -9 -676 0 -850 2 -856
12 -10 16 -11 879 -1 894 4 6 13 13 20 15 24 8 1690 4 1698 -4z"/>
<path d="M939 1568 c-1 -2 -3 -119 -4 -261 -1 -182 1 -257 9 -254 6 2 10 14
10 25 -2 28 2 27 38 -3 16 -14 37 -25 46 -26 9 0 28 -2 40 -5 13 -2 43 4 67
15 35 15 47 29 70 75 24 49 27 64 21 112 -8 67 -26 106 -63 132 -59 41 -135
36 -187 -13 -14 -13 -26 -21 -27 -17 0 4 -1 53 -1 109 0 57 -4 105 -9 109 -5
3 -10 4 -10 2z m196 -194 c91 -34 105 -214 22 -286 -51 -45 -143 -24 -181 40
-21 37 -25 130 -7 172 30 72 95 101 166 74z"/>
<path d="M1601 1560 c-42 -4 -56 -9 -62 -25 -8 -19 -8 -19 -15 3 -6 21 -11 22
-125 22 -66 0 -119 -3 -120 -7 0 -5 -1 -57 -2 -116 -2 -107 2 -130 19 -127 5
1 10 -3 12 -9 2 -6 -3 -11 -12 -11 -9 0 -16 -3 -17 -7 -1 -11 -1 -215 0 -229
1 -6 43 -10 118 -10 104 1 118 3 121 19 4 20 22 23 22 3 0 -21 15 -23 128 -22
66 1 105 5 110 13 6 9 7 103 3 216 -1 9 -8 17 -16 17 -19 0 -19 10 0 24 12 9
16 36 17 123 1 62 -1 115 -4 118 -8 8 -113 11 -177 5z"/>
<path d="M290 1295 l0 -245 125 0 c77 0 125 4 125 10 0 6 -44 10 -113 10
l-112 0 0 235 c0 182 -3 235 -12 235 -10 0 -13 -55 -13 -245z"/>
<path d="M675 1403 c-38 -7 -75 -25 -70 -34 3 -4 22 -2 43 5 20 7 50 12 66 11
40 -3 76 -46 76 -91 0 -34 0 -34 -44 -34 -92 0 -166 -54 -166 -120 0 -90 119
-129 192 -64 18 17 19 17 25 -4 3 -12 9 -22 14 -22 14 0 4 271 -11 301 -18 39
-73 62 -125 52z m115 -217 c0 -64 -23 -99 -76 -116 -46 -15 -89 1 -101 38 -10
31 -10 38 1 70 10 30 78 61 134 62 l42 0 0 -54z"/>
</g>
</svg>
